# xmcd CD database file
#
# Track frame offsets:
#	150
#	11331
#	22553
#	37875
#	55060
#	75339
#	90194
#	100281
#	120606
#	129533
#	141458
#	156456
#	169702
#	188303
#	200249
#	216415
#
# Disc length: 3025 seconds
#
# Revision: 0
# Processed by: cddbd v1.5.2PL0 Copyright (c) Steve Scherf et al.
# Submitted via: CDex 1.70beta2
#
DISCID=c50bcf10
DTITLE=Landry, Ned [CDN - fiddle - OVM-XX) - My Little Bear Waltz
DYEAR=1900
DGENRE=Country
TTITLE0=Whiskey Before Breakfest
TTITLE1=Harbour Station Special
TTITLE2=I Only Want To Love You
TTITLE3=Confederation Bridge Waltz
TTITLE4=Mansion On The Hilltop
TTITLE5=Coffee Time
TTITLE6=Ken Raynold's Polka
TTITLE7=How Great Thou Art
TTITLE8=Medley-Roll Out the Barrel. Long Way To Tipperary, Lilly Marlane
TTITLE9=My Little Bear Waltz
TTITLE10=Ashokan Farewell
TTITLE11=Little Raindrop
TTITLE12=Laura's Theme (Somewhere My Love)
TTITLE13=Fiddle and Bow (Recitation by Gerry Taylor and Sandra Cohen)
TTITLE14=Gerry's Waltz
TTITLE15=Smile Awhile
EXTD=
EXTT0=
EXTT1=
EXTT2=
EXTT3=
EXTT4=
EXTT5=
EXTT6=
EXTT7=
EXTT8=
EXTT9=
EXTT10=
EXTT11=
EXTT12=
EXTT13=
EXTT14=
EXTT15=
PLAYORDER=
